<?xml version="1.0" encoding="utf-8"?>
<!-- Generator: Adobe Illustrator 23.0.1, SVG Export Plug-In . SVG Version: 6.00 Build 0)  -->
<svg version="1.1" id="Capa_1" xmlns="http://www.w3.org/2000/svg" xmlns:xlink="http://www.w3.org/1999/xlink" x="0px" y="0px"
	 viewBox="0 0 132.9 47.3" style="enable-background:new 0 0 132.9 47.3;" xml:space="preserve">
<style type="text/css">
	.st0{fill-rule:evenodd;clip-rule:evenodd;fill:#626363;}
	.st1{fill-rule:evenodd;clip-rule:evenodd;fill:#FC9113;}
</style>
<g>
	<path class="st0" d="M23.8,28.7c-1.7,0.8-4.1,1.6-6.5,1.6c-1.8,0-3.3-0.6-4.1-1.7c-0.4-0.6-0.7-1.6-0.7-2.2
		c8.6,0.2,13.9-1.7,13.9-7.2c0-4-3.1-6.4-7.4-6.4c-7.7,0-12.5,6.8-12.5,13.3c0,5.6,3.1,9,9.3,9c2,0,4.8-0.4,7-1.2L23.8,28.7
		L23.8,28.7z M20.5,19.2c0,1.9-2.4,2.6-7.3,2.6c0.4-2,2.1-4.4,5-4.4C19.6,17.4,20.5,18.1,20.5,19.2z"/>
	<path class="st1" d="M116.6,17.6c2.5,0,3.4,2.1,3.4,4.1c0,3.7-1.9,8.7-5.4,8.7c-2.2,0-3.4-1.7-3.4-4.2
		C111.2,22.9,113,17.6,116.6,17.6L116.6,17.6z M117.5,12.8c-7.6,0-12.8,6.1-12.8,13.5c0,5.3,3.6,8.8,9,8.8c7.4,0,12.8-5.7,12.8-13.5
		C126.5,16.7,123.2,12.8,117.5,12.8z"/>
	<path class="st1" d="M102.5,29.2c-1.1,0.4-2.4,0.9-4.2,0.9c-2.4,0-4.2-1.5-4.2-4.4c0-4,2.8-7.8,7.3-7.8c1.3,0,1.9,0.1,2.7,0.4
		l0.9-5c-0.9-0.4-1.7-0.5-3.5-0.5c-8.1,0-13.9,5.9-13.9,13.5c0,5.5,3.7,8.7,9,8.7c2,0,3.7-0.2,5-0.7L102.5,29.2z"/>
	<path class="st0" d="M69,13.3l4.2,19.4c0.1,0.5,0.1,0.7-0.1,1c-0.8,1.4-2,2.7-3.5,3.7c-1.2,0.9-2.6,1.4-3.6,1.7l1.4,5.4
		c1.4-0.2,4.4-1.3,6.9-3.6c2.8-2.7,5.4-6.6,8.2-12.2l7.6-15.3h-6.6l-3.9,9.4c-0.9,2.3-1.4,3.7-1.9,5h-0.1c-0.2-1.4-0.4-2.9-0.7-5.1
		l-1.3-9.3C75.6,13.3,69,13.3,69,13.3z"/>
	<path class="st0" d="M36.8,10.2c0.5-0.1,1.4-0.2,2.5-0.2c2.4,0,4.5,0.9,4.5,3.8c0,2.9-2.5,5.4-6.3,5.4c-1,0-1.7-0.1-2.4-0.2
		L36.8,10.2L36.8,10.2z M26,34.7h6.2l2-10.6c0.7,0.1,1.5,0.2,2.6,0.2c3.6,0,7-0.8,9.4-2.7c2.3-1.8,4-4.6,4-8.3
		c0-2.8-1.2-4.9-3.2-6.2c-2.1-1.5-5.2-2-7.8-2c-4.1,0-5.9,0.2-9.6,1.4l-0.8,4.1l1.9-0.2L26,34.7z"/>
	<path class="st0" d="M60.1,26.5c-0.1,0.4-0.2,0.8-0.4,1.1c-0.7,1.4-2.3,2.4-3.9,2.4c-1.5,0-2.5-0.8-2.1-2.5
		c0.5-2.6,3.4-3.4,6.9-3.4L60.1,26.5L60.1,26.5z M65.4,34.3c0-1.2,0.3-3.1,0.7-5.2l1.5-7.4c1-5-0.4-9.2-7.6-9.2
		c-3,0-5.5,0.6-7.3,1.3l-1,4.9c1.6-0.9,4-1.6,6.2-1.6c3.3,0,3.6,1.6,3.3,2.8L61.2,20c-7.6,0-13.1,2.6-14.2,8.2
		c-0.7,3.4,1.3,6.6,5.6,6.6c2.5,0,4.9-0.9,6.6-2.6h0.1l0,2.1L65.4,34.3L65.4,34.3z"/>
</g>
</svg>
